<svg xmlns="http://www.w3.org/2000/svg" viewBox="0 0 325.01 70.45"><defs><style>.cls-1{fill:#fff;}</style></defs><g id="Layer_2" data-name="Layer 2"><g id="Layer_1-2" data-name="Layer 1"><path class="cls-1" d="M44.85,69.09l-4.38-13.9H17.13l-4.46,13.9H0l22.78-68H34.65l23,68ZM28.92,17.87,20,44.21H37.21Z"/><path class="cls-1" d="M63.09,54.2,63,1.23H74.82L75,54.77q0,5.11,4.11,5.11a27,27,0,0,0,3.38-.16L83,69.51a36.85,36.85,0,0,1-7.5.83Q63.09,70.34,63.09,54.2Z"/><path class="cls-1" d="M84.94,25.52v-9.9H92L91.75,1.23H104V15.62h11.22v9.9H104V52.77q0,7.66,6.19,7.67a17.72,17.72,0,0,0,5.52-.91L117,68.77a26.8,26.8,0,0,1-8.74,1.57q-8.32,0-12.29-4.5T92,51.61V25.52Z"/><path class="cls-1" d="M164.77,8.25V1.08h11.78V50.56H164.77V43.39c-1.67,4.81-7.66,8.25-15.8,8.25-13.94,0-24.74-11.19-24.74-25.82C124.23,11,135.22,0,149,0,157.11,0,163.1,3.44,164.77,8.25Zm.89,17.57A15,15,0,0,0,150.54,10.7c-8.35,0-14.63,6.48-14.63,15.12s6.28,15.12,14.63,15.12A14.94,14.94,0,0,0,165.66,25.82Z"/><path class="cls-1" d="M226.3,27.06V1h11.78V69.37H226.3V62.2c-1.67,4.82-7.66,8.25-15.8,8.25-13.94,0-24.74-11.19-24.74-25.82,0-14.82,11-25.82,24.74-25.82C218.64,18.81,224.63,22.25,226.3,27.06Zm.88,17.57a15,15,0,0,0-15.11-15.12c-8.35,0-14.63,6.48-14.63,15.12s6.28,15.12,14.63,15.12A14.94,14.94,0,0,0,227.18,44.63Z"/><path class="cls-1" d="M287.83,8.25V1.08h11.78V50.56H287.83V43.39c-1.67,4.81-7.66,8.25-15.81,8.25-13.94,0-24.73-11.19-24.73-25.82C247.29,11,258.28,0,272,0,280.17,0,286.16,3.44,287.83,8.25Zm.88,17.57A15,15,0,0,0,273.59,10.7c-8.34,0-14.62,6.48-14.62,15.12s6.28,15.12,14.62,15.12A14.94,14.94,0,0,0,288.71,25.82Z"/><path class="cls-1" d="M307.6,10.11V3.53h-2.79V.9h8.33V3.53H310.4v6.58Zm6.73,0V.9h1.29l4.08,4.37L323.77.9H325v9.21h-2.66V5.72l-2.65,3L317,5.72v4.39Z"/></g></g></svg>